<svg width="106" height="40" viewBox="0 0 106 40" fill="none" xmlns="http://www.w3.org/2000/svg">
<path d="M16.0533 10.4016L21.4044 19.67L16.0533 28.9384H5.35111L0 19.67L5.35111 10.4016L16.0533 10.4016Z" fill="#F57200"></path>
<path d="M33.9977 1.2758e-08L39.3488 9.26839L33.9977 18.5368H23.2954L17.9443 9.26839L23.2954 0L33.9977 1.2758e-08Z" fill="#FFA200"></path>
<path d="M34.0904 20.8151L39.4415 30.0835L34.0904 39.3518H23.3882L18.0371 30.0835L23.3882 20.8151L34.0904 20.8151Z" fill="#FFCC01"></path>
<path d="M97.5449 13.6387L97.6308 12.4792C97.6976 12.4888 97.7596 12.4983 97.8169 12.5079C97.8741 12.5174 97.9266 12.5222 97.9743 12.5222C98.2797 12.5222 98.5183 12.4172 98.69 12.2073C98.8714 11.9973 99.005 11.7206 99.0908 11.3771C99.1767 11.024 99.2388 10.628 99.2769 10.189C99.3151 9.75002 99.3437 9.31106 99.3628 8.87209L99.4916 6.06653H105.317V13.653H103.943V6.86812L104.273 7.26891H100.379L100.694 6.8538L100.594 8.95798C100.565 9.62597 100.513 10.251 100.436 10.8331C100.36 11.4152 100.241 11.9258 100.079 12.3647C99.9258 12.8037 99.7111 13.1472 99.4344 13.3953C99.1672 13.6435 98.8189 13.7675 98.3895 13.7675C98.2654 13.7675 98.1318 13.7532 97.9887 13.7246C97.8551 13.7055 97.7071 13.6769 97.5449 13.6387Z" fill="black"></path>
<path d="M88.375 13.6387L88.4609 12.4792C88.5277 12.4888 88.5897 12.4983 88.647 12.5079C88.7042 12.5174 88.7567 12.5222 88.8044 12.5222C89.1098 12.5222 89.3484 12.4172 89.5201 12.2073C89.7014 11.9973 89.835 11.7206 89.9209 11.3771C90.0068 11.024 90.0688 10.628 90.107 10.189C90.1452 9.75002 90.1738 9.31106 90.1929 8.87209L90.3217 6.06653H96.1476V13.653H94.7734V6.86812L95.1026 7.26891H91.2092L91.5241 6.8538L91.4239 8.95798C91.3953 9.62597 91.3428 10.251 91.2664 10.8331C91.1901 11.4152 91.0708 11.9258 90.9086 12.3647C90.7559 12.8037 90.5412 13.1472 90.2645 13.3953C89.9973 13.6435 89.649 13.7675 89.2195 13.7675C89.0955 13.7675 88.9619 13.7532 88.8187 13.7246C88.6851 13.7055 88.5372 13.6769 88.375 13.6387Z" fill="black"></path>
<path d="M83.769 13.7389C83.0056 13.7389 82.3281 13.5719 81.7364 13.2379C81.1448 12.9039 80.6772 12.4459 80.3337 11.8638C79.9901 11.2721 79.8184 10.6041 79.8184 9.8598C79.8184 9.10592 79.9901 8.43793 80.3337 7.85583C80.6772 7.27372 81.1448 6.82044 81.7364 6.49599C82.3281 6.16199 83.0056 5.995 83.769 5.995C84.5229 5.995 85.1957 6.16199 85.7873 6.49599C86.3885 6.82044 86.8561 7.27372 87.1901 7.85583C87.5337 8.42839 87.7054 9.09638 87.7054 9.8598C87.7054 10.6137 87.5337 11.2817 87.1901 11.8638C86.8561 12.4459 86.3885 12.9039 85.7873 13.2379C85.1957 13.5719 84.5229 13.7389 83.769 13.7389ZM83.769 12.5365C84.2557 12.5365 84.6899 12.4268 85.0716 12.2073C85.4629 11.9878 85.7683 11.6777 85.9877 11.2769C86.2072 10.8666 86.317 10.3942 86.317 9.8598C86.317 9.31586 86.2072 8.84827 85.9877 8.45702C85.7683 8.05622 85.4629 7.74609 85.0716 7.5266C84.6899 7.30712 84.2557 7.19738 83.769 7.19738C83.2824 7.19738 82.8482 7.30712 82.4665 7.5266C82.0848 7.74609 81.7794 8.05622 81.5504 8.45702C81.3213 8.84827 81.2068 9.31586 81.2068 9.8598C81.2068 10.3942 81.3213 10.8666 81.5504 11.2769C81.7794 11.6777 82.0848 11.9878 82.4665 12.2073C82.8482 12.4268 83.2824 12.5365 83.769 12.5365Z" fill="black"></path>
<path d="M71.8252 13.653L75.0888 9.41603L75.0745 10.1174L71.9683 6.06653H73.4999L75.8761 9.187H75.2892L77.6653 6.06653H79.1683L76.0192 10.146L76.0335 9.41603L79.3258 13.653H77.7655L75.2606 10.3321L75.8188 10.418L73.3568 13.653H71.8252Z" fill="black"></path>
<path d="M67.3545 10.3178V9.12976H71.205V10.3178H67.3545Z" fill="black"></path>
<path d="M62.5924 13.653V6.91106L62.9359 7.26891H59.8154V6.06653H66.7435V7.26891H63.6373L63.9665 6.91106V13.653H62.5924Z" fill="black"></path>
<path d="M55.5369 13.7389C54.9071 13.7389 54.3298 13.5958 53.8049 13.3095C53.2896 13.0137 52.8745 12.5795 52.5596 12.0069C52.2542 11.4344 52.1015 10.7186 52.1015 9.8598C52.1015 9.00095 52.2494 8.28525 52.5453 7.71269C52.8506 7.14012 53.261 6.7107 53.7763 6.42442C54.3011 6.13814 54.888 5.995 55.5369 5.995C56.2812 5.995 56.9397 6.15722 57.5123 6.48167C58.0848 6.80613 58.5381 7.25941 58.8721 7.84151C59.2061 8.41408 59.3731 9.08684 59.3731 9.8598C59.3731 10.6328 59.2061 11.3103 58.8721 11.8924C58.5381 12.4745 58.0848 12.9278 57.5123 13.2522C56.9397 13.5767 56.2812 13.7389 55.5369 13.7389ZM51.5146 16.43V6.06656H52.8315V8.11348L52.7457 9.87411L52.8888 11.6347V16.43H51.5146ZM55.4224 12.5365C55.9091 12.5365 56.3433 12.4268 56.725 12.2073C57.1162 11.9878 57.4216 11.6777 57.6411 11.2769C57.8701 10.8666 57.9846 10.3942 57.9846 9.8598C57.9846 9.31586 57.8701 8.84827 57.6411 8.45702C57.4216 8.05622 57.1162 7.74609 56.725 7.5266C56.3433 7.30712 55.9091 7.19738 55.4224 7.19738C54.9453 7.19738 54.5111 7.30712 54.1198 7.5266C53.7381 7.74609 53.4327 8.05622 53.2037 8.45702C52.9842 8.84827 52.8745 9.31586 52.8745 9.8598C52.8745 10.3942 52.9842 10.8666 53.2037 11.2769C53.4327 11.6777 53.7381 11.9878 54.1198 12.2073C54.5111 12.4268 54.9453 12.5365 55.4224 12.5365Z" fill="black"></path>
<path d="M47.7376 13.653V12.0499L47.6661 11.7493V9.01527C47.6661 8.43316 47.4943 7.98465 47.1507 7.66974C46.8167 7.34529 46.311 7.18306 45.6334 7.18306C45.1849 7.18306 44.746 7.25941 44.3166 7.41209C43.8871 7.55523 43.5245 7.75086 43.2287 7.99897L42.6561 6.96835C43.0474 6.65344 43.515 6.41487 44.0589 6.25265C44.6124 6.08088 45.1897 5.995 45.7909 5.995C46.8311 5.995 47.6327 6.24788 48.1957 6.75364C48.7587 7.25941 49.0402 8.03237 49.0402 9.07253V13.653H47.7376ZM45.247 13.7389C44.6839 13.7389 44.1877 13.6435 43.7583 13.4526C43.3384 13.2618 43.014 12.9994 42.7849 12.6654C42.5559 12.3218 42.4414 11.9353 42.4414 11.5059C42.4414 11.0956 42.5368 10.7234 42.7277 10.3894C42.9281 10.0554 43.2478 9.78823 43.6867 9.58783C44.1352 9.38744 44.7364 9.28724 45.4903 9.28724H47.8951V10.2749H45.5476C44.8605 10.2749 44.3977 10.3894 44.1591 10.6184C43.9205 10.8475 43.8012 11.1242 43.8012 11.4487C43.8012 11.8208 43.9492 12.1214 44.245 12.3505C44.5408 12.5699 44.9511 12.6797 45.476 12.6797C45.9913 12.6797 46.4398 12.5652 46.8215 12.3361C47.2128 12.1071 47.4943 11.7731 47.6661 11.3342L47.938 12.2789C47.7567 12.7274 47.437 13.0852 46.979 13.3524C46.5209 13.6101 45.9436 13.7389 45.247 13.7389Z" fill="black"></path>
<path d="M87.4688 18.2643H91.0771V22.8392H94.6211C98.0361 22.8392 100.055 24.9226 100.055 27.9725C100.055 31.1728 98.0147 33.3206 94.5137 33.3206H87.4688V18.2643ZM101.795 18.2643H105.317V33.2992H101.795V18.2643ZM91.0771 29.9056H94.6855C95.9527 29.9056 96.4682 29.0679 96.4682 27.9725C96.4682 26.9416 95.9527 26.1898 94.7285 26.1898H91.0771V29.9056Z" fill="black"></path>
<path d="M72.8447 21.7008V18.2643H85.1089V21.7008H80.7917V33.2992H77.1834V21.7008H72.8447Z" fill="black"></path>
<path d="M64.3055 33.3851C59.6662 33.3851 56.7881 29.9915 56.7881 25.7602C56.7881 21.5505 59.838 18.1998 64.3055 18.1998C68.7301 18.1998 71.78 21.5934 71.78 25.7602C71.78 29.9485 68.9234 33.3851 64.3055 33.3851ZM64.3055 29.927C66.9474 29.927 68.1931 28.0799 68.1931 25.7602C68.1931 23.4835 66.7755 21.6364 64.3055 21.6364C61.7711 21.6364 60.3965 23.4406 60.3965 25.7602C60.3965 28.0799 61.6422 29.927 64.3055 29.927Z" fill="black"></path>
<path d="M42.4414 25.7603C42.4414 20.7558 46.1786 18.1999 50.1951 18.1784C51.9349 18.1569 53.4813 18.4361 55.1781 19.3597L53.7176 22.3452C52.6222 21.8297 51.3335 21.529 50.1951 21.572C48.0043 21.6364 46.0498 22.8607 46.0498 25.7603C46.0498 28.7028 48.0043 29.9056 50.1951 29.9486C51.3335 30.013 52.6222 29.7123 53.7176 29.2183L55.1781 32.1608C53.4813 33.1059 51.9349 33.4066 50.1951 33.4066C46.1786 33.3421 42.4414 30.7647 42.4414 25.7603Z" fill="black"></path>
</svg>