<svg xmlns="http://www.w3.org/2000/svg" viewBox="0 0 390 130" width="390" height="130" role="img" aria-label="арт-холл СОТЫ — мастерские, коворкинг">
  <g>
    <polygon points="20.19,37.57 51.81,37.57 67.62,65 51.81,92.44 20.19,92.44 4.38,65" fill="#F57200"></polygon>
    <polygon points="71.19,8.07 102.81,8.07 118.62,35.5 102.81,62.94 71.19,62.94 55.38,35.5" fill="#FFA200"></polygon>
    <polygon points="71.19,67.07 102.81,67.07 118.62,94.5 102.81,121.94 71.19,121.94 55.38,94.5" fill="#FFCC01"></polygon>
  </g>
  <path d="M167.35 40L164.54 40L164.22 37.06Q164.14 37.19 164.05 37.33Q163.13 38.74 161.78 39.52Q160.42 40.29 158.76 40.29Q157.02 40.29 155.68 39.51Q154.33 38.72 153.57 37.31Q152.82 35.91 152.82 34.06Q152.82 32.19 153.57 30.79Q154.33 29.39 155.68 28.61Q157.02 27.82 158.76 27.82Q160.42 27.82 161.78 28.60Q163.13 29.37 164.07 30.76Q164.16 30.91 164.24 31.03L164.54 28.11L167.35 28.11L166.72 34.06L167.35 40M155.59 34.06Q155.59 35.25 156.08 36.17Q156.58 37.08 157.44 37.60Q158.30 38.11 159.41 38.11Q160.55 38.11 161.51 37.60Q162.48 37.08 163.22 36.17Q163.97 35.25 164.41 34.06Q163.97 32.86 163.22 31.95Q162.48 31.03 161.51 30.52Q160.55 30 159.41 30Q158.30 30 157.44 30.52Q156.58 31.03 156.08 31.95Q155.59 32.86 155.59 34.06M170.18 43.47L170.18 28.11L172.91 28.11L172.91 31.22Q173.03 30.99 173.18 30.76Q174.10 29.37 175.46 28.60Q176.81 27.82 178.47 27.82Q180.21 27.82 181.56 28.61Q182.90 29.39 183.66 30.79Q184.41 32.19 184.41 34.06Q184.41 35.91 183.66 37.31Q182.90 38.72 181.56 39.51Q180.21 40.29 178.47 40.29Q176.81 40.29 175.47 39.52Q174.12 38.74 173.20 37.33Q173.03 37.10 172.91 36.87L172.91 43.47L170.18 43.47M181.64 34.06Q181.64 32.86 181.15 31.95Q180.66 31.03 179.79 30.52Q178.93 30 177.82 30Q176.71 30 175.73 30.52Q174.75 31.03 174.02 31.95Q173.28 32.86 172.82 34.06Q173.28 35.25 174.02 36.17Q174.75 37.08 175.73 37.60Q176.71 38.11 177.82 38.11Q178.93 38.11 179.79 37.60Q180.66 37.08 181.15 36.17Q181.64 35.25 181.64 34.06M185.71 30.26L185.71 28.11L198.31 28.11L198.31 30.26L193.37 30.26L193.37 40L190.64 40L190.64 30.26M219.47 40L216.43 40L221.60 33.89L216.77 28.11L219.89 28.11L223.40 32.25L226.91 28.11L229.93 28.11L225.06 33.87L230.27 40L227.14 40L223.30 35.48M238.34 40.29Q236.18 40.29 234.55 39.51Q232.93 38.72 232.01 37.31Q231.10 35.91 231.10 34.06Q231.10 32.19 232.01 30.79Q232.93 29.39 234.55 28.61Q236.18 27.82 238.34 27.82Q240.51 27.82 242.13 28.61Q243.76 29.39 244.68 30.79Q245.59 32.19 245.59 34.06Q245.59 35.91 244.68 37.31Q243.76 38.72 242.13 39.51Q240.51 40.29 238.34 40.29M238.34 38.15Q239.73 38.15 240.73 37.65Q241.72 37.14 242.27 36.23Q242.82 35.32 242.82 34.06Q242.82 32.80 242.27 31.88Q241.72 30.97 240.73 30.47Q239.73 29.96 238.34 29.96Q236.98 29.96 235.97 30.47Q234.96 30.97 234.42 31.88Q233.87 32.80 233.87 34.06Q233.87 35.32 234.42 36.23Q234.96 37.14 235.97 37.65Q236.98 38.15 238.34 38.15M250.09 28.11L261.79 28.11L261.79 40L259.06 40L259.06 30.21L252.72 30.21Q252.76 30.99 252.82 31.70Q252.89 32.88 252.89 33.80Q252.89 37.16 251.94 38.70Q251 40.23 248.90 40.23Q248.33 40.23 247.80 40.10Q247.28 39.98 246.80 39.71L246.80 37.67Q247.17 37.82 247.54 37.90Q247.91 37.98 248.22 37.98Q249.38 37.98 249.89 36.91Q250.41 35.84 250.41 33.43Q250.41 32.38 250.34 31.03Q250.26 29.69 250.09 28.11M266.97 28.11L278.67 28.11L278.67 40L275.94 40L275.94 30.21L269.59 30.21Q269.63 30.99 269.70 31.70Q269.76 32.88 269.76 33.80Q269.76 37.16 268.82 38.70Q267.87 40.23 265.77 40.23Q265.20 40.23 264.68 40.10Q264.15 39.98 263.67 39.71L263.67 37.67Q264.05 37.82 264.42 37.90Q264.78 37.98 265.10 37.98Q266.25 37.98 266.77 36.91Q267.28 35.84 267.28 33.43Q267.28 32.38 267.21 31.03Q267.14 29.69 266.97 28.11" fill="#FFFFFF"></path>
  <rect x="203.17" y="33.7" width="8.79" height="1.79" rx="0.6" fill="#FFFFFF"></rect>
  <path d="M191.70 79.16L204.18 79.16Q203.52 85.10 200.10 89.57Q196.68 94.04 191.13 96.50Q185.58 98.96 178.38 98.96Q170.52 98.96 164.64 96.02Q158.76 93.08 155.49 87.80Q152.22 82.52 152.22 75.50Q152.22 68.48 155.49 63.20Q158.76 57.92 164.64 54.98Q170.52 52.04 178.38 52.04Q185.58 52.04 191.13 54.50Q196.68 56.96 200.10 61.43Q203.52 65.90 204.18 71.84L191.70 71.84Q191.10 68.96 189.36 66.95Q187.62 64.94 184.83 63.86Q182.04 62.78 178.38 62.78Q174.18 62.78 171.12 64.31Q168.06 65.84 166.44 68.69Q164.82 71.54 164.82 75.50Q164.82 79.46 166.44 82.31Q168.06 85.16 171.12 86.69Q174.18 88.22 178.38 88.22Q182.04 88.22 184.83 87.20Q187.62 86.18 189.36 84.14Q191.10 82.10 191.70 79.16M234.66 98.96Q226.68 98.96 220.65 96.02Q214.62 93.08 211.29 87.80Q207.96 82.52 207.96 75.50Q207.96 68.48 211.29 63.20Q214.62 57.92 220.65 54.98Q226.68 52.04 234.66 52.04Q242.70 52.04 248.70 54.98Q254.70 57.92 258.06 63.20Q261.42 68.48 261.42 75.50Q261.42 82.52 258.06 87.80Q254.70 93.08 248.70 96.02Q242.70 98.96 234.66 98.96M234.66 87.86Q239.04 87.86 242.22 86.36Q245.40 84.86 247.11 82.10Q248.82 79.34 248.82 75.50Q248.82 71.66 247.11 68.90Q245.40 66.14 242.22 64.64Q239.04 63.14 234.66 63.14Q230.34 63.14 227.16 64.64Q223.98 66.14 222.24 68.90Q220.50 71.66 220.50 75.50Q220.50 79.34 222.24 82.10Q223.98 84.86 227.16 86.36Q230.34 87.86 234.66 87.86M264.48 64.04L264.48 53L311.28 53L311.28 64.04L294.12 64.04L294.12 98L281.64 98L281.64 64.04M341.46 98L316.32 98L316.32 53L328.74 53L328.74 66.92L341.46 66.92Q347.16 66.92 351.27 68.87Q355.38 70.82 357.57 74.30Q359.76 77.78 359.76 82.46Q359.76 87.14 357.57 90.65Q355.38 94.16 351.27 96.08Q347.16 98 341.46 98M340.68 76.76L328.74 76.76L328.74 88.22L340.68 88.22Q343.74 88.22 345.45 86.66Q347.16 85.10 347.16 82.46Q347.16 79.76 345.45 78.26Q343.74 76.76 340.68 76.76M363.48 98L363.48 53L375.90 53L375.90 98" fill="#FFFFFF"></path>
  <g fill="#E8E8E8">
    <path d="M154.02 120L152.84 120L152.84 111.36L153.97 111.36L157.11 117.86L160.22 111.36L161.37 111.36L161.37 119.99L160.18 119.99L160.18 114.08L157.39 120L156.82 120L154.02 114.08M166.15 120L164.85 120L167.65 111.36L169.46 111.36L172.27 120L170.97 120L170.32 118.05L166.78 118.05L166.15 120M167.16 116.87L169.94 116.87L168.54 112.61M179.35 120.18Q178.06 120.18 177.15 119.61Q176.23 119.05 175.75 118.03Q175.27 117.02 175.27 115.68Q175.27 114.34 175.75 113.33Q176.23 112.31 177.15 111.75Q178.06 111.18 179.35 111.18Q180.85 111.18 181.83 111.94Q182.81 112.69 183.19 113.97L181.92 114.31Q181.67 113.41 181.02 112.89Q180.38 112.37 179.35 112.37Q178.44 112.37 177.82 112.79Q177.21 113.20 176.90 113.95Q176.59 114.69 176.59 115.68Q176.59 116.67 176.90 117.41Q177.21 118.16 177.82 118.57Q178.44 118.99 179.35 118.99Q180.38 118.99 181.02 118.47Q181.67 117.95 181.92 117.05L183.19 117.39Q182.81 118.67 181.83 119.42Q180.85 120.18 179.35 120.18M190.32 120L189.07 120L189.07 112.54L186.19 112.54L186.19 111.36L193.20 111.36L193.20 112.54L190.32 112.54M202.08 120L196.56 120L196.56 111.36L202.08 111.36L202.08 112.54L197.81 112.54L197.81 114.97L201.36 114.97L201.36 116.15L197.81 116.15L197.81 118.82L202.08 118.82M207.17 120L205.92 120L205.92 111.36L209.41 111.36Q209.53 111.36 209.72 111.37Q209.91 111.38 210.07 111.41Q210.79 111.52 211.28 111.90Q211.76 112.28 212 112.85Q212.24 113.43 212.24 114.13Q212.24 114.83 212 115.40Q211.76 115.98 211.28 116.36Q210.79 116.74 210.07 116.85Q209.91 116.87 209.72 116.89Q209.53 116.90 209.41 116.90L207.17 116.90L207.17 120M207.17 112.54L207.17 115.71L209.36 115.71Q209.48 115.71 209.63 115.70Q209.77 115.69 209.91 115.66Q210.29 115.57 210.52 115.32Q210.76 115.08 210.86 114.76Q210.96 114.44 210.96 114.13Q210.96 113.81 210.86 113.49Q210.76 113.18 210.52 112.94Q210.29 112.69 209.91 112.60Q209.77 112.57 209.63 112.55Q209.48 112.54 209.36 112.54M219.45 120.18Q218.15 120.18 217.24 119.61Q216.33 119.05 215.84 118.03Q215.36 117.02 215.36 115.68Q215.36 114.34 215.84 113.33Q216.33 112.31 217.24 111.75Q218.15 111.18 219.45 111.18Q220.94 111.18 221.92 111.94Q222.90 112.69 223.29 113.97L222.01 114.31Q221.76 113.41 221.12 112.89Q220.47 112.37 219.45 112.37Q218.53 112.37 217.92 112.79Q217.30 113.20 216.99 113.95Q216.69 114.69 216.69 115.68Q216.68 116.67 216.99 117.41Q217.30 118.16 217.91 118.57Q218.53 118.99 219.45 118.99Q220.47 118.99 221.12 118.47Q221.76 117.95 222.01 117.05L223.29 117.39Q222.90 118.67 221.92 119.42Q220.94 120.18 219.45 120.18M228.26 120L227.01 120L227.01 111.36L228.26 111.36L228.26 115.39L231.88 111.36L233.44 111.36L229.62 115.58L233.72 120L232.11 120L228.26 115.87M243.76 111.36L243.76 120L242.49 120L242.49 113.57L238.23 120L236.96 120L236.96 111.36L238.23 111.36L238.23 117.78L242.49 111.36M253.36 120L247.84 120L247.84 111.36L253.36 111.36L253.36 112.54L249.09 112.54L249.09 114.97L252.64 114.97L252.64 116.15L249.09 116.15L249.09 118.82L253.36 118.82"></path>
    <circle cx="266.96" cy="116" r="2.1" fill="#F57200"></circle>
    <path d="M282.05 120L280.80 120L280.80 111.36L282.05 111.36L282.05 115.39L285.67 111.36L287.23 111.36L283.41 115.58L287.51 120L285.90 120L282.05 115.87M294.36 120.18Q293.06 120.18 292.15 119.61Q291.24 119.05 290.75 118.03Q290.27 117.02 290.27 115.68Q290.27 114.34 290.75 113.33Q291.24 112.31 292.15 111.75Q293.06 111.18 294.36 111.18Q295.65 111.18 296.56 111.75Q297.48 112.31 297.96 113.33Q298.44 114.34 298.44 115.68Q298.44 117.02 297.96 118.03Q297.48 119.05 296.56 119.61Q295.65 120.18 294.36 120.18M294.36 118.99Q295.28 119 295.88 118.58Q296.49 118.16 296.80 117.42Q297.11 116.67 297.11 115.68Q297.11 114.69 296.80 113.95Q296.49 113.21 295.88 112.79Q295.28 112.38 294.36 112.37Q293.44 112.36 292.83 112.78Q292.22 113.19 291.92 113.94Q291.61 114.69 291.60 115.68Q291.60 116.67 291.90 117.41Q292.21 118.15 292.82 118.57Q293.44 118.98 294.36 118.99M305.76 120L302.04 120L302.04 111.36L305.43 111.36Q306.26 111.36 306.81 111.70Q307.37 112.03 307.65 112.56Q307.94 113.09 307.94 113.68Q307.94 114.40 307.59 114.91Q307.35 115.24 307.02 115.43Q307.57 115.66 307.90 116.10Q308.34 116.69 308.34 117.48Q308.34 118.24 308.04 118.81Q307.74 119.37 307.16 119.69Q306.58 120 305.76 120M303.31 116.07L303.31 118.81L305.57 118.81Q305.99 118.81 306.33 118.64Q306.67 118.48 306.86 118.18Q307.06 117.88 307.06 117.46Q307.06 117.07 306.89 116.75Q306.72 116.44 306.40 116.25Q306.08 116.07 305.64 116.07L303.31 116.07M303.31 112.54L303.31 114.89L305.42 114.89Q305.76 114.89 306.04 114.75Q306.32 114.61 306.49 114.34Q306.65 114.07 306.65 113.69Q306.65 113.19 306.32 112.87Q305.98 112.54 305.42 112.54M315.54 120.18Q314.25 120.18 313.34 119.61Q312.42 119.05 311.94 118.03Q311.46 117.02 311.46 115.68Q311.46 114.34 311.94 113.33Q312.42 112.31 313.34 111.75Q314.25 111.18 315.54 111.18Q316.83 111.18 317.75 111.75Q318.66 112.31 319.14 113.33Q319.62 114.34 319.62 115.68Q319.62 117.02 319.14 118.03Q318.66 119.05 317.75 119.61Q316.83 120.18 315.54 120.18M315.54 118.99Q316.46 119 317.07 118.58Q317.68 118.16 317.99 117.42Q318.29 116.67 318.29 115.68Q318.29 114.69 317.99 113.95Q317.68 113.21 317.07 112.79Q316.46 112.38 315.54 112.37Q314.63 112.36 314.02 112.78Q313.41 113.19 313.10 113.94Q312.80 114.69 312.79 115.68Q312.78 116.67 313.09 117.41Q313.40 118.15 314.01 118.57Q314.63 118.98 315.54 118.99M324.48 120L323.22 120L323.22 111.36L326.72 111.36Q326.84 111.36 327.03 111.37Q327.21 111.38 327.38 111.41Q328.10 111.52 328.58 111.90Q329.07 112.28 329.31 112.85Q329.55 113.43 329.55 114.13Q329.55 114.83 329.31 115.40Q329.07 115.98 328.58 116.36Q328.10 116.74 327.38 116.85Q327.21 116.87 327.02 116.89Q326.84 116.90 326.72 116.90L324.48 116.90L324.48 120M324.48 112.54L324.48 115.71L326.67 115.71Q326.79 115.71 326.93 115.70Q327.08 115.69 327.21 115.66Q327.60 115.57 327.83 115.32Q328.07 115.08 328.17 114.76Q328.27 114.44 328.27 114.13Q328.27 113.81 328.17 113.49Q328.07 113.18 327.83 112.94Q327.60 112.69 327.21 112.60Q327.08 112.57 326.93 112.55Q326.79 112.54 326.67 112.54M334.40 120L333.15 120L333.15 111.36L334.40 111.36L334.40 115.39L338.02 111.36L339.58 111.36L335.76 115.58L339.86 120L338.25 120L334.40 115.87M349.90 111.36L349.90 120L348.63 120L348.63 113.57L344.37 120L343.10 120L343.10 111.36L344.37 111.36L344.37 117.78L348.63 111.36M355.23 120L353.98 120L353.98 111.36L355.23 111.36L355.23 115.09L359.55 115.09L359.55 111.36L360.81 111.36L360.81 120L359.55 120L359.55 116.27L355.23 116.27M366.15 120L364.89 120L364.89 111.36L370.41 111.36L370.41 112.54L366.15 112.54"></path>
  </g>
</svg>
