<svg width="266" height="101" viewBox="0 0 266 101" fill="none" xmlns="http://www.w3.org/2000/svg">
<path d="M245.395 19.6583L245.613 16.7079C245.783 16.7322 245.941 16.7565 246.087 16.7808C246.232 16.8051 246.366 16.8172 246.487 16.8172C247.264 16.8172 247.871 16.5501 248.309 16.0158C248.77 15.4816 249.11 14.7774 249.328 13.9032C249.547 13.0047 249.705 11.997 249.802 10.8799C249.899 9.76289 249.972 8.64586 250.02 7.52883L250.348 0.389526H265.173V19.6948H261.676V2.42933L262.514 3.44923H252.607L253.408 2.3929L253.153 7.74738C253.08 9.44721 252.947 11.0378 252.752 12.519C252.558 14.0003 252.255 15.2995 251.842 16.4165C251.453 17.5336 250.907 18.4078 250.203 19.0391C249.523 19.6705 248.636 19.9862 247.544 19.9862C247.228 19.9862 246.888 19.9497 246.524 19.8769C246.184 19.8283 245.807 19.7555 245.395 19.6583Z" fill="black"></path>
<path d="M222.06 19.6583L222.279 16.7079C222.449 16.7322 222.606 16.7565 222.752 16.7808C222.898 16.8051 223.031 16.8172 223.153 16.8172C223.93 16.8172 224.537 16.5501 224.974 16.0158C225.435 15.4816 225.775 14.7774 225.994 13.9032C226.213 13.0047 226.37 11.997 226.467 10.8799C226.565 9.76289 226.637 8.64586 226.686 7.52883L227.014 0.389526H241.839V19.6948H238.342V2.42933L239.18 3.44923H229.272L230.074 2.3929L229.819 7.74738C229.746 9.44721 229.612 11.0378 229.418 12.519C229.224 14.0003 228.92 15.2995 228.507 16.4165C228.119 17.5336 227.572 18.4078 226.868 19.0391C226.188 19.6705 225.302 19.9862 224.209 19.9862C223.893 19.9862 223.553 19.9497 223.189 19.8769C222.849 19.8283 222.473 19.7555 222.06 19.6583Z" fill="black"></path>
<path d="M210.341 19.9133C208.399 19.9133 206.675 19.4884 205.169 18.6384C203.663 17.7885 202.474 16.6229 201.599 15.1416C200.725 13.6361 200.288 11.9362 200.288 10.0421C200.288 8.12376 200.725 6.42393 201.599 4.94264C202.474 3.46136 203.663 2.3079 205.169 1.48227C206.675 0.632355 208.399 0.207397 210.341 0.207397C212.26 0.207397 213.972 0.632355 215.477 1.48227C217.007 2.3079 218.197 3.46136 219.047 4.94264C219.921 6.39964 220.358 8.09948 220.358 10.0421C220.358 11.9605 219.921 13.6604 219.047 15.1416C218.197 16.6229 217.007 17.7885 215.477 18.6384C213.972 19.4884 212.26 19.9133 210.341 19.9133ZM210.341 16.8536C211.58 16.8536 212.685 16.5744 213.656 16.0158C214.652 15.4573 215.429 14.6681 215.987 13.6482C216.546 12.604 216.825 11.402 216.825 10.0421C216.825 8.65799 216.546 7.46811 215.987 6.4725C215.429 5.4526 214.652 4.66339 213.656 4.10487C212.685 3.54635 211.58 3.26709 210.341 3.26709C209.103 3.26709 207.998 3.54635 207.027 4.10487C206.055 4.66339 205.278 5.4526 204.696 6.4725C204.113 7.46811 203.821 8.65799 203.821 10.0421C203.821 11.402 204.113 12.604 204.696 13.6482C205.278 14.6681 206.055 15.4573 207.027 16.0158C207.998 16.5744 209.103 16.8536 210.341 16.8536Z" fill="black"></path>
<path d="M179.946 19.6948L188.251 8.91298L188.215 10.6978L180.311 0.389526H184.208L190.255 8.33017H188.761L194.808 0.389526H198.632L190.619 10.7706L190.655 8.91298L199.033 19.6948H195.063L188.688 11.2442L190.109 11.4627L183.844 19.6948H179.946Z" fill="black"></path>
<path d="M168.569 11.2077V8.18445H178.368V11.2077H168.569Z" fill="black"></path>
<path d="M156.453 19.6948V2.5386L157.327 3.44923H149.387V0.389526H167.016V3.44923H159.112L159.95 2.5386V19.6948H156.453Z" fill="black"></path>
<path d="M138.498 19.9133C136.895 19.9133 135.426 19.5491 134.09 18.8206C132.779 18.0678 131.723 16.9629 130.921 15.5059C130.144 14.0489 129.756 12.2276 129.756 10.0421C129.756 7.85664 130.132 6.03539 130.885 4.5784C131.662 3.1214 132.706 2.02865 134.017 1.30015C135.353 0.571647 136.846 0.207397 138.498 0.207397C140.392 0.207397 142.067 0.620213 143.524 1.44585C144.981 2.27148 146.135 3.42494 146.985 4.90622C147.835 6.36322 148.26 8.07519 148.26 10.0421C148.26 12.0091 147.835 13.7332 146.985 15.2145C146.135 16.6958 144.981 17.8492 143.524 18.6749C142.067 19.5005 140.392 19.9133 138.498 19.9133ZM128.262 26.7612V0.389521H131.613V5.5983L131.395 10.0786L131.759 14.5588V26.7612H128.262ZM138.206 16.8536C139.445 16.8536 140.55 16.5744 141.521 16.0158C142.517 15.4573 143.294 14.6681 143.852 13.6482C144.435 12.604 144.726 11.402 144.726 10.0421C144.726 8.65799 144.435 7.46811 143.852 6.4725C143.294 5.4526 142.517 4.66339 141.521 4.10487C140.55 3.54635 139.445 3.26709 138.206 3.26709C136.992 3.26709 135.887 3.54635 134.892 4.10487C133.92 4.66339 133.143 5.4526 132.56 6.4725C132.002 7.46811 131.723 8.65799 131.723 10.0421C131.723 11.402 132.002 12.604 132.56 13.6482C133.143 14.6681 133.92 15.4573 134.892 16.0158C135.887 16.5744 136.992 16.8536 138.206 16.8536Z" fill="black"></path>
<path d="M118.651 19.6948V15.6152L118.468 14.8502V7.89307C118.468 6.41179 118.031 5.27047 117.157 4.46912C116.307 3.64349 115.02 3.23067 113.296 3.23067C112.155 3.23067 111.038 3.42494 109.945 3.81347C108.852 4.17772 107.929 4.67553 107.177 5.3069L105.72 2.6843C106.715 1.88295 107.905 1.27586 109.289 0.863046C110.698 0.425946 112.167 0.207397 113.697 0.207397C116.344 0.207397 118.383 0.850905 119.816 2.13792C121.249 3.42494 121.965 5.39189 121.965 8.03877V19.6948H118.651ZM112.313 19.9133C110.88 19.9133 109.617 19.6705 108.524 19.1848C107.456 18.6991 106.63 18.0314 106.048 17.1814C105.465 16.3072 105.173 15.3238 105.173 14.231C105.173 13.1868 105.416 12.2398 105.902 11.3899C106.412 10.54 107.225 9.86002 108.342 9.35007C109.484 8.84012 111.013 8.58515 112.932 8.58515H119.051V11.0985H113.078C111.329 11.0985 110.151 11.3899 109.544 11.9727C108.937 12.5555 108.634 13.2597 108.634 14.0853C108.634 15.0324 109.01 15.7973 109.763 16.3801C110.516 16.9386 111.56 17.2179 112.895 17.2179C114.207 17.2179 115.348 16.9265 116.319 16.3437C117.315 15.7609 118.031 14.911 118.468 13.7939L119.161 16.198C118.699 17.3393 117.886 18.2499 116.72 18.9298C115.554 19.5855 114.085 19.9133 112.313 19.9133Z" fill="black"></path>
<path d="M219.754 31.429H228.937V43.0707H237.955C246.645 43.0707 251.783 48.3723 251.783 56.1335C251.783 64.2772 246.59 69.7428 237.682 69.7428H219.754V31.429ZM256.21 31.429H265.174V69.6881H256.21V31.429ZM228.937 61.0525H238.119C241.344 61.0525 242.655 58.9209 242.655 56.1335C242.655 53.51 241.344 51.597 238.228 51.597H228.937V61.0525Z" fill="black"></path>
<path d="M182.542 40.1739V31.429H213.75V40.1739H202.764V69.6881H193.582V40.1739H182.542Z" fill="black"></path>
<path d="M160.811 69.9067C149.006 69.9067 141.682 61.271 141.682 50.5038C141.682 39.7912 149.443 31.2649 160.811 31.2649C172.07 31.2649 179.832 39.9005 179.832 50.5038C179.832 61.1617 172.562 69.9067 160.811 69.9067ZM160.811 61.1071C167.534 61.1071 170.704 56.4066 170.704 50.5038C170.704 44.7103 167.097 40.0098 160.811 40.0098C154.362 40.0098 150.864 44.601 150.864 50.5038C150.864 56.4066 154.034 61.1071 160.811 61.1071Z" fill="black"></path>
<path d="M105.173 50.5039C105.173 37.769 114.683 31.2649 124.904 31.2103C129.331 31.1556 133.267 31.8662 137.584 34.2164L133.868 41.8135C131.08 40.5018 127.801 39.7366 124.904 39.8459C119.329 40.0099 114.356 43.1253 114.356 50.5039C114.356 57.9917 119.329 61.0525 124.904 61.1618C127.801 61.3257 131.08 60.5606 133.868 59.3035L137.584 66.7913C133.267 69.1962 129.331 69.9614 124.904 69.9614C114.683 69.7974 105.173 63.2387 105.173 50.5039Z" fill="black"></path>
<path d="M179.244 91.0731C178.525 91.0731 177.891 90.9251 177.341 90.629C176.799 90.3328 176.376 89.9267 176.072 89.4106C175.775 88.8945 175.627 88.3023 175.627 87.6339C175.627 86.9655 175.771 86.3733 176.059 85.8572C176.355 85.3411 176.757 84.9392 177.265 84.6516C177.781 84.3555 178.36 84.2074 179.003 84.2074C179.655 84.2074 180.23 84.3512 180.729 84.6389C181.228 84.9265 181.618 85.3327 181.897 85.8572C182.184 86.3733 182.328 86.9782 182.328 87.672C182.328 87.7228 182.324 87.782 182.316 87.8497C182.316 87.9173 182.311 87.9808 182.303 88.04H176.579V87.1644H181.668L181.173 87.4689C181.182 87.0375 181.093 86.6525 180.907 86.3141C180.721 85.9757 180.463 85.7134 180.133 85.5272C179.811 85.3327 179.435 85.2354 179.003 85.2354C178.58 85.2354 178.204 85.3327 177.874 85.5272C177.544 85.7134 177.286 85.9799 177.1 86.3268C176.913 86.6652 176.82 87.0544 176.82 87.4943V87.6974C176.82 88.1458 176.922 88.5477 177.125 88.903C177.336 89.2499 177.628 89.5206 178.001 89.7152C178.373 89.9098 178.8 90.0071 179.282 90.0071C179.68 90.0071 180.04 89.9394 180.361 89.8041C180.691 89.6687 180.979 89.4656 181.224 89.1949L181.897 89.9817C181.592 90.3371 181.211 90.6078 180.755 90.7939C180.306 90.9801 179.803 91.0731 179.244 91.0731Z" fill="black"></path>
<path d="M167.438 90.997V84.2709H168.656V89.1695L172.78 84.2709H173.884V90.997H172.666V86.0984L168.554 90.997H167.438Z" fill="black"></path>
<path d="M164.726 90.997L162.125 87.7228L163.127 87.1136L166.16 90.997H164.726ZM159.853 90.997V84.2709H161.071V90.997H159.853ZM160.703 88.1543V87.1136H162.924V88.1543H160.703ZM163.229 87.7735L162.099 87.6213L164.676 84.2709H165.983L163.229 87.7735Z" fill="black"></path>
<path d="M155.534 91.0731C154.849 91.0731 154.236 90.9251 153.694 90.629C153.161 90.3328 152.742 89.9267 152.438 89.4106C152.133 88.8945 151.981 88.3023 151.981 87.6339C151.981 86.9655 152.133 86.3733 152.438 85.8572C152.742 85.3411 153.161 84.9392 153.694 84.6516C154.236 84.3555 154.849 84.2074 155.534 84.2074C156.144 84.2074 156.685 84.3301 157.159 84.5754C157.641 84.8123 158.013 85.1677 158.276 85.6415L157.349 86.2379C157.129 85.908 156.858 85.6668 156.537 85.5146C156.224 85.3538 155.885 85.2734 155.522 85.2734C155.082 85.2734 154.688 85.3707 154.341 85.5653C153.995 85.7599 153.72 86.0349 153.517 86.3902C153.313 86.7371 153.212 87.1517 153.212 87.6339C153.212 88.1162 153.313 88.535 153.517 88.8903C153.72 89.2457 153.995 89.5206 154.341 89.7152C154.688 89.9098 155.082 90.0071 155.522 90.0071C155.885 90.0071 156.224 89.931 156.537 89.7787C156.858 89.6179 157.129 89.3726 157.349 89.0426L158.276 89.6264C158.013 90.0917 157.641 90.4513 157.159 90.7051C156.685 90.9505 156.144 91.0731 155.534 91.0731Z" fill="black"></path>
<path d="M147.431 91.0731C146.873 91.0731 146.361 90.9462 145.896 90.6924C145.439 90.4301 145.071 90.0452 144.792 89.5375C144.521 89.0299 144.386 88.3954 144.386 87.6339C144.386 86.8725 144.517 86.2379 144.779 85.7303C145.05 85.2227 145.414 84.8419 145.87 84.5881C146.336 84.3343 146.856 84.2074 147.431 84.2074C148.091 84.2074 148.675 84.3512 149.183 84.6389C149.69 84.9265 150.092 85.3284 150.388 85.8445C150.684 86.3521 150.832 86.9486 150.832 87.6339C150.832 88.3192 150.684 88.9199 150.388 89.436C150.092 89.9521 149.69 90.354 149.183 90.6416C148.675 90.9293 148.091 91.0731 147.431 91.0731ZM143.865 93.459V84.2709H145.033V86.0856L144.957 87.6466L145.084 89.2076V93.459H143.865ZM147.33 90.0071C147.761 90.0071 148.146 89.9098 148.485 89.7152C148.832 89.5206 149.102 89.2457 149.297 88.8903C149.5 88.5265 149.601 88.1077 149.601 87.6339C149.601 87.1517 149.5 86.7371 149.297 86.3902C149.102 86.0349 148.832 85.7599 148.485 85.5653C148.146 85.3707 147.761 85.2734 147.33 85.2734C146.907 85.2734 146.522 85.3707 146.175 85.5653C145.837 85.7599 145.566 86.0349 145.363 86.3902C145.168 86.7371 145.071 87.1517 145.071 87.6339C145.071 88.1077 145.168 88.5265 145.363 88.8903C145.566 89.2457 145.837 89.5206 146.175 89.7152C146.522 89.9098 146.907 90.0071 147.33 90.0071Z" fill="black"></path>
<path d="M138.892 91.0731C138.173 91.0731 137.538 90.9251 136.988 90.629C136.447 90.3328 136.024 89.9267 135.719 89.4106C135.423 88.8945 135.275 88.3023 135.275 87.6339C135.275 86.9655 135.419 86.3733 135.706 85.8572C136.003 85.3411 136.404 84.9392 136.912 84.6516C137.428 84.3555 138.008 84.2074 138.651 84.2074C139.302 84.2074 139.877 84.3512 140.377 84.6389C140.876 84.9265 141.265 85.3327 141.544 85.8572C141.832 86.3733 141.976 86.9782 141.976 87.672C141.976 87.7228 141.971 87.782 141.963 87.8497C141.963 87.9173 141.959 87.9808 141.95 88.04H136.227V87.1644H141.316L140.821 87.4689C140.829 87.0375 140.74 86.6525 140.554 86.3141C140.368 85.9757 140.11 85.7134 139.78 85.5272C139.459 85.3327 139.082 85.2354 138.651 85.2354C138.228 85.2354 137.851 85.3327 137.521 85.5272C137.191 85.7134 136.933 85.9799 136.747 86.3268C136.561 86.6652 136.468 87.0544 136.468 87.4943V87.6974C136.468 88.1458 136.569 88.5477 136.772 88.903C136.984 89.2499 137.276 89.5206 137.648 89.7152C138.02 89.9098 138.448 90.0071 138.93 90.0071C139.328 90.0071 139.687 89.9394 140.009 89.8041C140.339 89.6687 140.626 89.4656 140.872 89.1949L141.544 89.9817C141.24 90.3371 140.859 90.6078 140.402 90.7939C139.954 90.9801 139.45 91.0731 138.892 91.0731Z" fill="black"></path>
<path d="M131.268 90.997V85.0196L131.573 85.3369H128.806V84.2709H134.949V85.3369H132.195L132.486 85.0196V90.997H131.268Z" fill="black"></path>
<path d="M125.704 91.0731C125.019 91.0731 124.405 90.9251 123.864 90.629C123.331 90.3328 122.912 89.9267 122.607 89.4106C122.303 88.8945 122.15 88.3023 122.15 87.6339C122.15 86.9655 122.303 86.3733 122.607 85.8572C122.912 85.3411 123.331 84.9392 123.864 84.6516C124.405 84.3555 125.019 84.2074 125.704 84.2074C126.313 84.2074 126.854 84.3301 127.328 84.5754C127.81 84.8123 128.183 85.1677 128.445 85.6415L127.519 86.2379C127.299 85.908 127.028 85.6668 126.706 85.5146C126.393 85.3538 126.055 85.2734 125.691 85.2734C125.251 85.2734 124.858 85.3707 124.511 85.5653C124.164 85.7599 123.889 86.0349 123.686 86.3902C123.483 86.7371 123.381 87.1517 123.381 87.6339C123.381 88.1162 123.483 88.535 123.686 88.8903C123.889 89.2457 124.164 89.5206 124.511 89.7152C124.858 89.9098 125.251 90.0071 125.691 90.0071C126.055 90.0071 126.393 89.931 126.706 89.7787C127.028 89.6179 127.299 89.3726 127.519 89.0426L128.445 89.6264C128.183 90.0917 127.81 90.4513 127.328 90.7051C126.854 90.9505 126.313 91.0731 125.704 91.0731Z" fill="black"></path>
<path d="M119.423 90.997V89.5756L119.36 89.3091V86.8852C119.36 86.3691 119.207 85.9714 118.903 85.6922C118.607 85.4046 118.158 85.2607 117.558 85.2607C117.16 85.2607 116.771 85.3284 116.39 85.4638C116.009 85.5907 115.688 85.7641 115.426 85.9841L114.918 85.0704C115.265 84.7912 115.679 84.5797 116.162 84.4358C116.652 84.2835 117.164 84.2074 117.697 84.2074C118.619 84.2074 119.33 84.4316 119.829 84.88C120.328 85.3284 120.578 86.0137 120.578 86.9359V90.997H119.423ZM117.215 91.0731C116.716 91.0731 116.276 90.9885 115.895 90.8193C115.523 90.6501 115.235 90.4174 115.032 90.1213C114.829 89.8167 114.728 89.4741 114.728 89.0934C114.728 88.7296 114.812 88.3996 114.981 88.1035C115.159 87.8074 115.442 87.5705 115.832 87.3928C116.229 87.2151 116.762 87.1263 117.431 87.1263H119.563V88.002H117.481C116.872 88.002 116.462 88.1035 116.25 88.3065C116.039 88.5096 115.933 88.7549 115.933 89.0426C115.933 89.3726 116.064 89.6391 116.327 89.8421C116.589 90.0367 116.953 90.134 117.418 90.134C117.875 90.134 118.273 90.0325 118.611 89.8294C118.958 89.6264 119.207 89.3303 119.36 88.9411L119.601 89.7787C119.44 90.1763 119.157 90.4936 118.751 90.7305C118.344 90.9589 117.833 91.0731 117.215 91.0731Z" fill="black"></path>
<path d="M105.173 90.997V84.2709H106.43L109.323 89.2457H108.816L111.785 84.2709H112.927V90.997H111.823V85.6415L112.026 85.7557L109.311 90.2356H108.778L106.049 85.6669L106.29 85.6161V90.997H105.173Z" fill="black"></path>
<path d="M260.362 90.997V84.2709H265.312V85.3369H261.289L261.581 85.0577V90.997H260.362Z" fill="black"></path>
<path d="M251.724 90.997V84.2709H252.942V87.1263H256.775V84.2709H257.993V90.997H256.775V88.1796H252.942V90.997H251.724Z" fill="black"></path>
<path d="M242.913 90.997V84.2709H244.131V89.1695L248.255 84.2709H249.36V90.997H248.141V86.0984L244.029 90.997H242.913Z" fill="black"></path>
<path d="M240.201 90.997L237.6 87.7228L238.602 87.1136L241.635 90.997H240.201ZM235.328 90.997V84.2709H236.546V90.997H235.328ZM236.178 88.1543V87.1136H238.399V88.1543H236.178ZM238.704 87.7735L237.574 87.6213L240.151 84.2709H241.458L238.704 87.7735Z" fill="black"></path>
<path d="M230.156 91.0731C229.598 91.0731 229.086 90.9462 228.621 90.6924C228.164 90.4301 227.796 90.0452 227.517 89.5375C227.246 89.0299 227.111 88.3954 227.111 87.6339C227.111 86.8725 227.242 86.2379 227.504 85.7303C227.775 85.2227 228.139 84.8419 228.595 84.5881C229.061 84.3343 229.581 84.2074 230.156 84.2074C230.816 84.2074 231.4 84.3512 231.908 84.6389C232.415 84.9265 232.817 85.3284 233.113 85.8445C233.41 86.3521 233.558 86.9486 233.558 87.6339C233.558 88.3192 233.41 88.9199 233.113 89.436C232.817 89.9521 232.415 90.354 231.908 90.6416C231.4 90.9293 230.816 91.0731 230.156 91.0731ZM226.59 93.459V84.2709H227.758V86.0856L227.682 87.6466L227.809 89.2076V93.459H226.59ZM230.055 90.0071C230.486 90.0071 230.871 89.9098 231.21 89.7152C231.557 89.5206 231.827 89.2457 232.022 88.8903C232.225 88.5265 232.327 88.1077 232.327 87.6339C232.327 87.1517 232.225 86.7371 232.022 86.3902C231.827 86.0349 231.557 85.7599 231.21 85.5653C230.871 85.3707 230.486 85.2734 230.055 85.2734C229.632 85.2734 229.247 85.3707 228.9 85.5653C228.562 85.7599 228.291 86.0349 228.088 86.3902C227.893 86.7371 227.796 87.1517 227.796 87.6339C227.796 88.1077 227.893 88.5265 228.088 88.8903C228.291 89.2457 228.562 89.5206 228.9 89.7152C229.247 89.9098 229.632 90.0071 230.055 90.0071Z" fill="black"></path>
<path d="M221.342 91.0731C220.665 91.0731 220.064 90.9251 219.539 90.629C219.015 90.3328 218.6 89.9267 218.296 89.4106C217.991 88.8861 217.839 88.2938 217.839 87.6339C217.839 86.9655 217.991 86.3733 218.296 85.8572C218.6 85.3411 219.015 84.9392 219.539 84.6516C220.064 84.3555 220.665 84.2074 221.342 84.2074C222.01 84.2074 222.606 84.3555 223.131 84.6516C223.664 84.9392 224.079 85.3411 224.375 85.8572C224.679 86.3648 224.832 86.9571 224.832 87.6339C224.832 88.3023 224.679 88.8945 224.375 89.4106C224.079 89.9267 223.664 90.3328 223.131 90.629C222.606 90.9251 222.01 91.0731 221.342 91.0731ZM221.342 90.0071C221.773 90.0071 222.158 89.9098 222.496 89.7152C222.843 89.5206 223.114 89.2457 223.309 88.8903C223.503 88.5265 223.601 88.1077 223.601 87.6339C223.601 87.1517 223.503 86.7371 223.309 86.3902C223.114 86.0349 222.843 85.7599 222.496 85.5653C222.158 85.3707 221.773 85.2734 221.342 85.2734C220.91 85.2734 220.525 85.3707 220.187 85.5653C219.848 85.7599 219.578 86.0349 219.374 86.3902C219.171 86.7371 219.07 87.1517 219.07 87.6339C219.07 88.1077 219.171 88.5265 219.374 88.8903C219.578 89.2457 219.848 89.5206 220.187 89.7152C220.525 89.9098 220.91 90.0071 221.342 90.0071Z" fill="black"></path>
<path d="M210.665 90.997V84.2709H213.787C214.574 84.2709 215.191 84.4232 215.64 84.7277C216.097 85.0239 216.325 85.4469 216.325 85.9968C216.325 86.5468 216.109 86.974 215.678 87.2786C215.255 87.5747 214.692 87.7228 213.99 87.7228L214.18 87.3928C214.984 87.3928 215.581 87.5409 215.97 87.837C216.359 88.1331 216.554 88.5688 216.554 89.1442C216.554 89.7279 216.334 90.1848 215.894 90.5148C215.462 90.8363 214.798 90.997 213.901 90.997H210.665ZM211.858 90.0579H213.812C214.32 90.0579 214.701 89.9817 214.955 89.8295C215.208 89.6687 215.335 89.4149 215.335 89.068C215.335 88.7127 215.217 88.4546 214.98 88.2939C214.751 88.1247 214.388 88.04 213.889 88.04H211.858V90.0579ZM211.858 87.1644H213.685C214.151 87.1644 214.502 87.0798 214.739 86.9106C214.984 86.7329 215.107 86.4875 215.107 86.1745C215.107 85.853 214.984 85.6119 214.739 85.4511C214.502 85.2904 214.151 85.21 213.685 85.21H211.858V87.1644Z" fill="black"></path>
<path d="M205.416 91.0731C204.739 91.0731 204.138 90.9251 203.614 90.629C203.089 90.3328 202.675 89.9267 202.37 89.4106C202.065 88.8861 201.913 88.2938 201.913 87.6339C201.913 86.9655 202.065 86.3733 202.37 85.8572C202.675 85.3411 203.089 84.9392 203.614 84.6516C204.138 84.3555 204.739 84.2074 205.416 84.2074C206.084 84.2074 206.681 84.3555 207.205 84.6516C207.738 84.9392 208.153 85.3411 208.449 85.8572C208.753 86.3648 208.906 86.9571 208.906 87.6339C208.906 88.3023 208.753 88.8945 208.449 89.4106C208.153 89.9267 207.738 90.3328 207.205 90.629C206.681 90.9251 206.084 91.0731 205.416 91.0731ZM205.416 90.0071C205.847 90.0071 206.232 89.9098 206.571 89.7152C206.918 89.5206 207.188 89.2457 207.383 88.8903C207.577 88.5265 207.675 88.1077 207.675 87.6339C207.675 87.1517 207.577 86.7371 207.383 86.3902C207.188 86.0349 206.918 85.7599 206.571 85.5653C206.232 85.3707 205.847 85.2734 205.416 85.2734C204.984 85.2734 204.599 85.3707 204.261 85.5653C203.922 85.7599 203.652 86.0349 203.449 86.3902C203.246 86.7371 203.144 87.1517 203.144 87.6339C203.144 88.1077 203.246 88.5265 203.449 88.8903C203.652 89.2457 203.922 89.5206 204.261 89.7152C204.599 89.9098 204.984 90.0071 205.416 90.0071Z" fill="black"></path>
<path d="M200.047 90.997L197.445 87.7228L198.448 87.1136L201.481 90.997H200.047ZM195.173 90.997V84.2709H196.392V90.997H195.173ZM196.024 88.1543V87.1136H198.245V88.1543H196.024ZM198.549 87.7735L197.42 87.6213L199.996 84.2709H201.303L198.549 87.7735Z" fill="black"></path>
<path d="M188.673 85.2074L190.838 86.4574V88.9574L188.673 90.2074L186.508 88.9574V86.4574L188.673 85.2074Z" fill="#F57200"></path>
<path d="M40.8508 26.4689L54.4677 50.0541L40.8508 73.6393H13.6169L0 50.0541L13.6169 26.4689L40.8508 26.4689Z" fill="#F57200"></path>
<path d="M86.5109 3.24653e-08L100.128 23.5852L86.5109 47.1704H59.2771L45.6602 23.5852L59.2771 0L86.5109 3.24653e-08Z" fill="#FFA200"></path>
<path d="M86.7482 52.9678L100.365 76.553L86.7482 100.138H59.5144L45.8975 76.553L59.5144 52.9678L86.7482 52.9678Z" fill="#FFCC01"></path>
</svg>